<svg width="65" height="69" viewBox="0 0 65 69" fill="none" xmlns="http://www.w3.org/2000/svg">
<path d="M13.3518 0.424316H15.6457L19.7748 1.34188L31.2443 4.55335L33.0794 4.78274L39.273 3.177L48.2192 0.653707L49.825 0.424316H52.1189L55.3303 1.11249L58.5418 2.71822L60.8357 4.55335L62.6708 6.84726L63.8178 9.14116L64.7354 12.3526V17.3992L61.5239 37.5856L58.083 59.3777L57.1655 63.048L55.5597 65.5713L53.4952 67.4064L51.2013 68.5533L50.2837 68.7827H45.9253L43.402 67.8652L41.3375 66.2594L39.9612 64.6537L38.8142 62.3598L33.997 43.5498L33.3088 41.7146L32.1619 41.944L29.1798 53.1842L27.1153 61.4422L25.9683 64.1949L24.3626 66.2594L22.5275 67.6358L20.6923 68.5533L19.7748 68.7827H15.4164L12.8931 67.8652L11.0579 66.4888L9.22281 64.4243L8.07585 61.6716L7.15829 56.8544L3.94682 36.668L0.964742 18.0874L0.735352 16.2523V13.0408L1.65291 9.59994L3.02926 6.84726L4.86438 4.55335L6.69951 2.94761L8.99342 1.57127L11.7461 0.653707L13.3518 0.424316ZM14.04 7.53543L11.2873 8.45299L8.99342 10.5175L7.84646 12.8114L7.61707 13.729V15.7935L11.9755 43.091L14.4988 58.9189L15.187 60.7541L16.3339 61.6716L18.169 61.901L19.5454 60.9835L20.463 59.6071L24.592 43.3204L25.7389 39.1913L27.1153 37.1268L28.9504 35.5211L31.4737 34.6035H33.997L36.7497 35.5211L39.0436 37.5856L39.9612 39.4207L41.7963 46.0731L45.0078 58.9189L45.9253 60.9835L47.5311 61.901L49.1368 61.6716L50.7425 60.2953L51.6601 55.7075L54.4128 38.5032L57.3948 19.6931L58.083 15.5641V13.729L57.1655 11.4351L55.7891 9.59994L54.4128 8.45299L52.5776 7.76482H49.5956L36.0615 11.4351L34.9146 11.6645H30.7855L24.592 10.0587L16.1045 7.76482L14.04 7.53543Z" fill="#5FCEE7"/>
</svg>
