<svg width="1171" height="173" viewBox="0 0 1171 173" fill="none" xmlns="http://www.w3.org/2000/svg">
<g clip-path="url(#clip0_102_16)">
<path d="M0 0.161621H1171V172.838H0V0.161621Z" fill="#5FCEE7"/>
<path d="M33.7349 19.0303L38.8809 19.6021L72.6157 28.7505L75.4746 29.3223H85.7666L105.779 24.1763L122.36 19.6021H129.793L134.939 21.8892L139.514 25.8916L142.944 32.1812L143.516 34.4683V39.0425L136.655 81.354L128.65 132.242L125.791 148.824L124.076 151.683L121.217 153.97L117.214 154.542L113.212 152.254L110.925 147.108L100.633 106.512L97.7739 96.792L94.3433 92.2178L90.3408 88.7871L83.4795 86.5H77.1899L70.9004 88.7871L66.3262 92.7896L62.8955 97.9355L58.8931 112.802L49.7446 148.824L47.4575 152.254L44.0269 154.542L39.4526 153.97L36.5938 151.683L34.8784 147.108L17.7251 39.6143V34.4683L20.0122 28.1787L25.1582 22.4609L29.7324 20.1738L33.7349 19.0303Z" fill="#5FCEEB"/>
<path d="M32.0195 1.30518H37.7373L48.0293 3.59229L76.6182 11.5972L81.1924 12.1689L96.6304 8.1665L118.93 1.87695L122.932 1.30518H128.65L136.655 3.02051L144.66 7.02295L150.377 11.5972L154.952 17.3149L157.811 23.0327L160.098 31.0376V43.6167L152.093 93.9331L143.516 148.252L141.229 157.4L137.227 163.69L132.081 168.264L126.363 171.123L124.076 171.695H113.212L106.922 169.408L101.776 165.405L98.3457 161.403L95.4868 155.685L83.4795 108.799L81.7642 104.225L78.9053 104.797L71.4722 132.814L66.3262 153.398L63.4673 160.259L59.4648 165.405L54.8906 168.836L50.3164 171.123L48.0293 171.695H37.1655L30.876 169.408L26.3018 165.977L21.7275 160.831L18.8687 153.97L16.5815 141.962L8.57666 91.646L1.14355 45.332L0.571777 40.7578V32.7529L2.85889 24.1763L6.28955 17.3149L10.8638 11.5972L15.438 7.59473L21.1558 4.16406L28.0171 1.87695L32.0195 1.30518ZM33.7349 19.0303L26.8735 21.3174L21.1558 26.4634L18.2969 32.1812L17.7251 34.4683V39.6143L28.5889 107.656L34.8784 147.108L36.5938 151.683L39.4526 153.97L44.0269 154.542L47.4575 152.254L49.7446 148.824L60.0366 108.228L62.8955 97.9355L66.3262 92.7896L70.9004 88.7871L77.1899 86.5H83.4795L90.3408 88.7871L96.0586 93.9331L98.3457 98.5073L102.92 115.089L110.925 147.108L113.212 152.254L117.214 154.542L121.217 153.97L125.219 150.539L127.506 139.104L134.368 96.2202L141.801 49.3345L143.516 39.0425V34.4683L141.229 28.7505L137.798 24.1763L134.368 21.3174L129.793 19.6021H122.36L88.6255 28.7505L85.7666 29.3223H75.4746L60.0366 25.3198L38.8809 19.6021L33.7349 19.0303Z" fill="#FDFDFD"/>
<path d="M942.861 51.0498H952.581L959.442 52.7651L965.16 55.0522L972.021 59.6265L976.024 64.2007L977.167 53.9087H995.464V136.245L994.893 136.816H985.172V139.675L984.601 140.247H966.875V134.529L958.871 137.96L944.576 141.962L939.43 143.106L931.997 142.534L923.42 140.247L917.131 136.816L911.413 131.67L907.411 127.096L902.836 119.091L899.978 109.943L898.834 103.082V93.3613L900.549 84.7847L903.408 77.3516L907.411 70.4902L913.7 63.6289L919.99 59.0547L929.138 55.624L937.715 52.1934L942.861 51.0498Z" fill="#FEFDFD"/>
<path d="M382.519 23.6045H400.816L401.388 24.1763V136.816H383.091L382.519 124.237L377.373 129.955L372.799 133.958L365.938 137.388L361.935 138.532L352.215 139.104L343.066 137.388L336.205 134.529L329.916 130.527L325.341 125.953L320.195 117.948L317.336 111.086L315.621 104.225L315.049 100.223V88.7871L316.765 80.2104L320.195 71.6338L325.341 64.2007L330.487 59.0547L337.92 54.4805L346.497 51.6216L349.928 51.0498H358.504L365.938 52.7651L372.799 56.1958L378.517 60.77L381.947 65.3442V24.1763L382.519 23.6045Z" fill="#FDFDFD"/>
<path d="M467.142 51.0498H476.862L485.439 52.7651L492.3 55.624L500.305 60.77L506.023 66.4878L510.025 72.7773L512.884 79.0669L515.171 88.7871L515.743 97.9355L514.028 107.656L511.169 115.089L507.738 120.807L502.592 127.096L496.875 131.67L491.157 135.101L482.58 137.96L474.003 139.104L464.283 138.532L456.278 136.245L447.13 131.67L441.412 127.096L435.123 119.091L431.12 110.515L429.405 103.653L428.833 99.6509V89.9307L430.548 81.354L433.979 72.7773L439.697 64.7725L445.986 59.0547L453.991 54.4805L463.14 51.6216L467.142 51.0498Z" fill="#FDFDFD"/>
<path d="M244.721 51.0498H255.013L265.305 53.3369L274.453 57.9111L280.171 62.4854L284.745 67.6313L289.319 75.6362L292.178 84.2129L293.322 90.5024V100.794L291.035 110.515L286.46 119.663L282.458 124.809L277.312 129.955L271.022 133.958L264.161 136.816L257.3 138.532L247.008 139.104L237.288 137.388L228.711 133.958L221.85 129.383L216.704 124.237L211.558 116.232L208.699 109.371L206.983 101.366V88.2153L209.271 79.0669L211.558 73.9209L214.988 68.2031L220.134 62.4854L224.708 58.4829L233.285 53.9087L241.29 51.6216L244.721 51.0498Z" fill="#FDFDFD"/>
<path d="M763.895 51.0498H773.615L782.191 52.7651L789.053 55.624L795.914 59.6265L799.917 63.0571L804.491 68.7749L808.493 75.6362L811.352 84.7847L812.496 93.3613V98.5073L810.78 108.228L807.921 115.089L803.919 121.95L797.629 128.812L791.912 132.814L785.05 136.245L775.902 138.532L766.182 139.104L756.461 137.388L749.028 134.529L742.167 130.527L735.306 123.666L730.16 115.661L727.301 107.656L725.585 99.0791V91.0742L727.301 81.9258L730.16 74.4927L733.59 68.7749L738.736 63.0571L743.882 58.4829L750.744 54.4805L757.605 52.1934L763.895 51.0498Z" fill="#FDFDFD"/>
<path d="M1054.93 51.0498L1064.65 51.6216L1073.23 53.9087L1080.09 57.3394L1084.66 61.3418L1089.24 69.3467L1090.38 73.3491V77.3516L1089.81 77.9233L1079.52 78.4951L1080.09 80.7822L1079.52 81.354H1061.22L1058.93 76.208L1054.93 72.7773L1049.78 71.062L1047.5 71.6338L1045.78 75.0645L1046.35 79.6387L1049.21 83.0693L1056.64 85.3564L1071.51 88.2153L1080.09 91.0742L1086.38 95.0767L1089.81 99.0791L1092.09 104.797L1092.67 107.656V116.804L1090.38 123.666L1086.95 128.812L1082.37 132.814L1074.37 136.816L1057.22 141.962L1050.35 143.106L1037.78 141.962L1030.34 139.675L1024.05 136.245L1020.05 132.814L1016.05 127.096L1013.76 121.378L1013.19 118.52V113.945H1021.77L1022.34 114.517L1022.91 120.235L1025.77 124.809L1026.91 125.381L1024.05 119.663L1022.91 115.661V109.943H1041.21L1044.07 116.804L1048.64 120.807L1053.79 122.522H1060.65L1062.36 119.091V115.089L1060.65 111.658L1057.22 109.371L1049.21 107.084L1034.92 104.225L1028.06 101.366L1023.48 97.9355L1018.91 92.7896L1016.62 86.5L1016.05 83.0693V76.7798L1017.19 71.6338L1021.19 64.7725L1025.77 60.1982L1030.91 57.9111L1036.06 56.1958L1042.35 53.3369L1049.21 51.6216L1054.93 51.0498Z" fill="#FDFDFD"/>
<path d="M1127.54 29.3223H1144.7L1145.27 29.894V52.7651H1161.28L1169.86 53.3369V69.9185L1160.14 70.4902L1159.56 73.3491H1145.84V109.371L1148.13 115.661L1150.99 117.948L1153.27 119.091L1169.86 120.235V135.673L1169.28 136.245H1159.56V139.675H1138.41L1130.4 137.96L1124.69 134.529L1121.26 130.527L1118.4 124.809L1116.68 118.52L1116.11 114.517L1115.54 92.2178V73.3491L1109.82 73.9209H1098.96V58.4829L1101.81 57.3394L1108.1 56.7676V53.9087L1108.68 53.3369L1116.11 52.7651V34.4683L1120.68 33.3247L1124.11 33.8965L1124.69 34.4683L1125.26 30.4658L1127.54 29.3223Z" fill="#FEFDFD"/>
<path d="M871.389 21.8892H891.973V37.8989H881.681V40.7578L881.109 41.3296H876.535L877.106 40.186L874.248 41.3296L871.96 43.6167L870.817 47.0474L870.245 53.3369H891.401V69.9185L881.681 70.4902L881.109 73.3491H871.96V72.2056L873.676 71.6338H879.965V70.4902H870.817L870.245 135.673L862.812 136.816L850.805 139.104L843.372 140.819H840.513V72.7773L828.505 74.4927L824.503 73.9209L823.931 59.0547L827.362 57.3394L833.08 56.7676L834.223 53.9087L835.367 53.3369H840.513V47.0474L842.8 39.6143L846.23 34.4683L850.233 29.894L855.379 27.6069L860.525 25.8916L866.814 23.0327L871.389 21.8892Z" fill="#FEFDFD"/>
<path d="M584.356 51.0498H594.077L602.082 52.7651L608.943 56.1958L612.945 59.6265L618.091 67.6313L620.95 76.7798L622.094 84.7847L622.666 102.51V135.673L621.522 136.245H603.225L602.653 135.673L602.082 85.9282L599.794 78.4951L596.364 73.3491L591.218 70.4902L586.072 69.3467L579.21 69.9185L572.349 72.7773L568.918 75.6362L564.916 81.9258L563.201 87.6436L562.629 135.673L560.914 136.245H543.188L542.617 135.673V88.7871L543.188 53.9087L548.906 53.3369H555.768L561.485 53.9087L562.057 64.2007L567.775 57.9111L574.064 53.9087L581.498 51.6216L584.356 51.0498Z" fill="#FCFDFD"/>
<path d="M0.571777 40.7578H1.14355L6.86133 77.3516L16.5815 137.96L18.8687 151.683L21.1558 158.544L24.5864 163.69L29.7324 168.264L34.8784 170.551L37.1655 171.123H48.0293L53.7471 168.836L58.8931 165.405L62.8955 160.259L65.7544 153.398L76.0464 112.802L78.3335 104.797L79.4771 103.653L82.3359 104.225L84.0513 108.799L94.915 151.683L97.7739 159.688L101.776 164.833L106.922 168.836L113.212 171.123L122.932 171.695L122.36 172.838H0V43.0449L0.571777 40.7578Z" fill="#60CEEB"/>
<path d="M660.975 29.3223H680.415L680.987 29.894V52.7651H698.14L705.001 53.3369V69.9185L681.559 70.4902L680.987 90.5024V100.794L681.559 111.086L684.417 116.804L688.42 119.091L705.001 120.235V136.245H691.851L682.13 135.673L675.269 133.958L669.551 130.527L665.549 125.381L662.69 118.52L661.546 113.374L660.975 107.084V69.9185H643.821V53.9087L644.393 53.3369L652.97 52.7651H660.975V29.3223Z" fill="#FDFDFD"/>
<path d="M353.358 69.3467H362.507L368.796 71.6338L374.514 75.6362L378.517 80.7822L381.375 87.0718L382.519 92.7896V97.9355L380.232 105.94L376.801 111.658L373.942 115.089L367.653 119.091L362.507 120.807H353.358L345.925 117.948L340.208 112.802L336.777 107.656L334.49 101.366L333.918 97.9355V91.0742L335.633 84.7847L338.492 79.0669L341.923 75.0645L347.069 71.6338L353.358 69.3467Z" fill="#5FCEEB"/>
<path d="M764.466 69.3467H773.615L779.904 71.6338L785.05 75.0645L789.625 80.7822L792.483 88.2153L793.055 91.646V99.6509L790.196 108.228L785.05 115.089L779.333 118.52L772.471 120.807H765.61L758.177 118.52L751.887 113.945L747.885 108.228L745.598 102.51L745.026 99.6509V89.9307L747.313 82.4976L751.315 76.7798L756.461 72.2056L762.179 69.9185L764.466 69.3467Z" fill="#5FCEEB"/>
<path d="M245.292 69.3467H255.013L262.446 72.2056L268.164 77.3516L271.594 83.0693L273.881 89.9307L274.453 96.792L272.166 105.94L269.307 111.086L265.305 115.661L260.73 118.52L253.297 120.807H246.436L240.718 119.091L235 115.661L230.998 111.658L226.996 103.653L225.852 97.9355V91.646L227.567 84.7847L230.426 79.0669L234.429 74.4927L240.146 71.062L245.292 69.3467Z" fill="#5FCEEB"/>
<path d="M467.142 69.3467H476.862L483.152 71.6338L489.441 76.208L493.444 82.4976L495.159 86.5L496.303 92.2178V98.5073L494.587 105.369L491.157 111.658L486.583 116.232L479.721 119.663L475.719 120.807H468.857L461.424 118.52L455.707 114.517L451.704 109.371L448.845 102.51L448.273 100.223V89.3589L450.561 82.4976L453.991 77.3516L457.994 73.3491L464.855 69.9185L467.142 69.3467Z" fill="#5FCEEB"/>
<path d="M941.146 72.2056L947.435 73.3491L954.296 76.208L960.014 80.7822L964.017 87.0718L965.732 92.2178L966.304 95.6484V103.653L964.017 110.515L960.014 116.804L956.012 120.235L954.296 120.807H948.007L942.861 119.091L937.143 115.661L933.141 111.658L929.138 103.653L928.566 101.366L927.995 93.3613L929.138 86.5L933.141 78.4951L937.715 73.9209L941.146 72.2056Z" fill="#5FCEEB"/>
<path d="M1108.1 53.9087H1108.68V70.4902L1117.82 69.9185H1125.26L1126.4 108.799L1128.12 118.52L1130.98 125.953L1136.12 131.67L1142.41 134.529L1145.27 135.101L1156.13 135.673L1159.56 136.245V139.675H1138.41L1130.4 137.96L1124.69 134.529L1121.26 130.527L1118.4 124.809L1116.68 118.52L1116.11 114.517L1115.54 92.2178V73.3491L1109.82 73.9209H1098.96V58.4829L1101.81 57.3394L1108.1 56.7676V53.9087Z" fill="#C7EDFA"/>
<path d="M1098.38 58.4829H1098.96V73.9209L1115.54 73.3491L1116.68 114.517L1118.4 123.094L1120.68 128.812L1124.69 133.958L1130.4 137.388L1138.41 139.104L1157.85 139.675V140.247H1149.84V141.391L1148.7 141.962L1142.98 142.534H1129.26L1122.4 141.391L1115.54 137.96L1111.54 133.958L1107.53 125.953L1106.39 120.807L1105.82 115.661V75.6362L1093.81 76.7798L1090.38 77.3516L1088.66 69.3467L1088.09 67.0596L1089.24 59.6265H1098.38V58.4829Z" fill="#90DCF2"/>
<path d="M925.136 57.3394L926.279 57.9111L918.846 65.3442L914.844 71.6338L911.985 78.4951L909.698 87.6436V100.223L911.413 111.086L911.985 113.945H913.128L917.131 121.95L921.133 127.096L926.851 132.242L936 136.816L940.574 137.96L952.581 139.104L950.294 140.247L939.43 143.106L931.997 142.534L923.42 140.247L917.131 136.816L911.413 131.67L907.411 127.096L902.836 119.091L899.978 109.943L898.834 103.082V93.3613L900.549 84.7847L903.408 77.3516L907.411 70.4902L913.7 63.6289L919.99 59.0547L925.136 57.3394Z" fill="#C6ECF9"/>
<path d="M917.703 59.0547L919.99 59.6265L915.416 63.0571L910.27 67.6313L905.124 75.0645L902.265 81.354L899.978 89.3589L899.406 93.3613V103.082L901.121 112.23L903.98 120.235L907.982 127.096L913.128 132.814L917.131 136.245L925.136 140.247L931.997 141.962L938.858 143.106L937.143 144.25L930.854 145.393H922.849L913.7 143.106L906.267 139.104L900.549 133.958L896.547 128.812L891.973 119.663L889.686 111.658L888.542 103.653L889.114 93.9331L891.401 84.7847L895.975 75.6362L899.406 71.062L904.552 65.916L912.557 60.77L917.703 59.0547Z" fill="#8FDBF1"/>
<path d="M817.07 59.6265H823.931L824.503 61.9136V73.9209L833.08 73.3491L840.513 72.7773V140.819H843.372V141.391L835.938 142.534H830.221V75.0645L829.077 75.6362L814.783 76.7798L814.211 76.208V60.1982L817.07 59.6265Z" fill="#90DCF2"/>
<path d="M833.651 54.4805H834.223V70.4902L850.233 69.9185L850.805 136.816H859.953V137.388L850.805 139.104L843.372 140.819H840.513V72.7773L828.505 74.4927L824.503 73.9209L823.931 59.0547L827.362 57.3394L833.08 56.7676L833.651 54.4805Z" fill="#C7EDFA"/>
<path d="M1024.05 59.6265H1026.91L1024.05 62.4854L1020.62 66.4878L1017.19 73.3491L1016.62 76.7798V83.0693L1018.34 89.9307L1020.62 94.5049L1025.2 99.0791L1033.2 103.082L1045.78 105.94L1055.5 108.228L1060.08 110.515L1062.36 113.374L1062.93 115.089V119.091L1061.22 122.522L1060.65 123.094H1053.79L1048.64 121.378L1044.07 117.376L1041.78 112.802L1041.21 110.515L1033.2 108.799L1024.62 107.084L1017.76 104.225L1013.19 100.794L1009.19 96.2202L1006.33 88.7871L1005.76 85.3564V80.7822L1007.47 73.9209L1010.9 68.2031L1015.48 63.6289L1022.34 60.1982L1024.05 59.6265Z" fill="#90DCF2"/>
<path d="M1030.91 57.9111H1033.77L1030.34 63.0571L1027.48 68.7749L1026.91 71.062V80.7822L1027.48 86.5H1028.63L1031.49 91.646L1036.63 96.2202L1042.92 99.0791L1051.5 101.366L1065.22 104.225L1070.94 107.084L1073.23 111.086V115.089L1070.37 119.663L1065.79 122.522L1060.65 123.094L1062.36 119.091V115.089L1060.65 111.658L1057.22 109.371L1049.21 107.084L1034.92 104.225L1028.06 101.366L1023.48 97.9355L1018.91 92.7896L1016.62 86.5L1016.05 83.0693V76.7798L1017.19 71.6338L1021.19 64.7725L1025.77 60.1982L1030.91 57.9111Z" fill="#C6ECF9"/>
<path d="M947.435 69.3467H957.155L964.017 72.2056L969.163 76.208L973.165 81.9258L976.024 89.3589L976.596 92.2178V98.5073L973.737 107.084L969.734 112.802L965.732 116.804L960.014 119.663H957.155L960.586 115.089L964.017 109.371L965.732 103.653V95.6484L964.017 88.7871L961.158 83.0693L958.299 79.6387L952.009 75.6362L942.861 72.7773L941.146 71.6338L947.435 69.3467Z" fill="#C7EDFA"/>
<path d="M941.146 72.2056L947.435 73.3491L954.296 76.208L960.014 80.7822L964.017 87.0718L965.732 92.2178L966.304 95.6484V103.653L964.017 110.515L960.014 116.804L956.012 120.235L954.296 120.807H950.294L949.15 119.663L952.581 114.517L955.44 107.656V97.9355L953.725 91.0742L951.438 86.5L947.435 81.9258L939.43 77.3516L936.571 75.0645L939.43 72.7773L941.146 72.2056Z" fill="#90DCF2"/>
<path d="M1013.19 113.945H1021.77L1022.34 114.517L1022.91 120.235L1025.77 124.809L1028.06 125.381L1032.06 129.955L1036.63 133.386L1042.92 136.245L1049.78 137.96L1062.36 138.532L1064.65 139.675L1054.36 142.534L1050.35 143.106L1037.78 141.962L1030.34 139.675L1024.05 136.245L1020.05 132.814L1016.05 127.096L1013.76 121.378L1013.19 118.52V113.945Z" fill="#C7EDFA"/>
<path d="M1012.62 113.945H1013.19L1014.9 123.094L1018.34 129.955L1021.19 133.386L1026.91 137.388L1033.2 140.247L1041.78 141.962L1050.35 142.534L1050.93 143.678L1045.78 144.821L1040.63 145.393H1032.63L1024.05 143.678L1016.62 140.819L1012.05 137.388L1008.04 133.386L1005.18 128.812L1002.9 121.378V116.804H1012.62V113.945Z" fill="#90DCF2"/>
<path d="M855.379 27.6069H858.238L857.094 29.894L853.664 35.6118L851.948 39.6143L851.376 42.4731L850.805 51.6216L850.233 53.3369H840.513V47.0474L842.8 39.6143L846.23 34.4683L850.233 29.894L855.379 27.6069Z" fill="#C6ECF9"/>
<path d="M848.518 29.3223H851.376L848.518 32.1812L845.087 36.7554L842.228 42.4731L841.084 47.0474L840.513 53.3369L835.367 53.9087L834.223 54.4805L833.08 57.3394H827.362V56.7676H830.221L830.792 49.9062L832.508 43.6167L835.367 38.4707L839.941 33.3247L846.23 29.894L848.518 29.3223Z" fill="#90DCF2"/>
<path d="M1054.93 67.0596H1060.65L1066.36 68.7749L1069.8 73.3491L1070.37 76.7798H1071.51V77.9233H1079.52L1080.09 80.7822L1079.52 81.354H1061.22L1058.93 76.208L1054.93 72.7773L1048.07 70.4902L1050.93 68.2031L1054.93 67.0596Z" fill="#C6ECF9"/>
<path d="M1115.54 34.4683H1116.11V52.7651L1108.68 53.9087L1108.1 56.7676L1106.39 57.3394H1101.81V56.7676L1105.25 56.1958L1105.82 36.7554L1110.39 35.6118H1114.97L1115.54 34.4683Z" fill="#90DCF2"/>
<path d="M1048.07 70.4902L1053.21 71.6338L1056.64 73.3491L1060.65 77.9233L1061.22 81.354L1072.08 80.7822L1079.52 81.354V81.9258H1069.8V84.7847H1060.08L1053.21 83.6411L1050.35 81.9258L1046.35 76.208L1045.78 73.3491L1048.07 70.4902Z" fill="#90DCF2"/>
<path d="M1125.26 30.4658H1125.83L1125.26 52.1934L1124.11 52.7651H1116.11V34.4683L1120.68 33.3247L1124.11 33.8965L1124.69 34.4683L1125.26 30.4658Z" fill="#C7EDFA"/>
<path d="M976.596 123.666H977.167V136.816H985.172V139.675L984.601 140.247H966.875V134.529L965.732 133.958L970.878 130.527L974.88 125.953H976.024L976.596 123.666Z" fill="#C6ECF9"/>
<path d="M965.732 134.529H966.875V140.247H981.17V140.819H975.452V142.534L964.588 143.106H957.155L956.583 142.534L957.155 138.532L956.012 137.96L963.445 135.673L965.732 134.529Z" fill="#90DCF2"/>
<path d="M1041.78 109.943L1047.5 111.658L1051.5 115.089L1052.64 117.376V121.95L1048.64 121.378L1044.07 117.376L1041.78 112.802V109.943Z" fill="#60CEEB"/>
<path d="M1152.7 69.9185H1160.14L1159.56 73.3491H1145.84L1145.27 75.6362V70.4902L1152.7 69.9185Z" fill="#C7EDFA"/>
<path d="M974.309 57.3394L976.596 57.9111V64.7725L973.737 61.9136L969.734 58.4829V57.9111L974.309 57.3394Z" fill="#90DCF2"/>
<path d="M871.389 69.9185H881.681L881.109 73.3491H871.96V72.2056L873.676 71.6338H879.965V70.4902H871.389V69.9185Z" fill="#C7EDFA"/>
<path d="M1016.62 113.374H1022.91L1025.77 122.522L1027.48 125.953L1025.2 124.809L1022.34 120.235L1021.77 114.517L1016.62 113.945V113.374Z" fill="#90DCF2"/>
<path d="M870.817 70.4902H879.965V71.6338L871.96 72.2056V73.3491H881.109V73.9209H870.817V70.4902Z" fill="#90DCF2"/>
<path d="M881.109 37.8989L881.681 39.6143L881.109 41.3296H876.535L877.678 38.4707L881.109 37.8989Z" fill="#C2EBF9"/>
<path d="M909.126 104.797L910.27 106.512L912.557 113.945L911.985 115.661L909.698 111.086L909.126 109.371V104.797Z" fill="#90DCF2"/>
<path d="M1066.94 70.4902L1069.8 73.3491L1070.94 77.3516L1069.22 76.7798L1066.94 72.2056V70.4902Z" fill="#90DCF2"/>
</g>
<defs>
<clipPath id="clip0_102_16">
<rect width="1171" height="173" fill="white"/>
</clipPath>
</defs>
</svg>
